<svg width="1063" height="833" viewBox="0 0 1063 833" fill="none" xmlns="http://www.w3.org/2000/svg">
<path d="M1062.46 695.7H0V696.231H1062.46V695.7Z" fill="#EBEBEB"/>
<path d="M368.08 709.257H318.824V709.788H368.08V709.257Z" fill="#EBEBEB"/>
<path d="M211.197 720.646H90.7773V721.178H211.197V720.646Z" fill="#EBEBEB"/>
<path d="M503.609 600.929H93.3074C90.0931 600.923 87.0124 599.642 84.7416 597.367C82.4707 595.092 81.1953 592.01 81.1953 588.795V12.0271C81.2233 8.83124 82.5111 5.7755 84.7789 3.52359C87.0467 1.27168 90.1114 0.00547463 93.3074 0H503.609C506.827 0 509.913 1.27833 512.189 3.55377C514.464 5.82921 515.742 8.91536 515.742 12.1333V588.795C515.742 592.013 514.464 595.099 512.189 597.375C509.913 599.65 506.827 600.929 503.609 600.929ZM93.3074 0.424986C90.234 0.430615 87.2884 1.65545 85.1172 3.83066C82.946 6.00586 81.7265 8.95368 81.7265 12.0271V588.795C81.7265 591.869 82.946 594.816 85.1172 596.992C87.2884 599.167 90.234 600.392 93.3074 600.397H503.609C506.683 600.386 509.627 599.16 511.801 596.987C513.974 594.813 515.2 591.869 515.211 588.795V12.0271C515.2 8.95345 513.974 6.00892 511.801 3.83553C509.627 1.66214 506.683 0.436184 503.609 0.424986H93.3074Z" fill="#EBEBEB"/>
<path d="M963.249 600.929H552.926C549.712 600.917 546.632 599.635 544.359 597.362C542.086 595.089 540.804 592.01 540.793 588.795V12.0271C540.827 8.8293 542.119 5.77358 544.39 3.52226C546.661 1.27094 549.728 0.00541492 552.926 0H963.249C966.441 0.0110592 969.501 1.27973 971.764 3.53105C974.027 5.78236 975.312 8.83491 975.34 12.0271V588.795C975.343 590.386 975.032 591.961 974.426 593.432C973.82 594.903 972.93 596.239 971.808 597.366C970.685 598.493 969.351 599.387 967.883 599.998C966.414 600.61 964.84 600.926 963.249 600.929ZM552.926 0.424986C549.853 0.436184 546.908 1.66214 544.735 3.83553C542.561 6.00892 541.335 8.95345 541.324 12.0271V588.795C541.335 591.869 542.561 594.813 544.735 596.987C546.908 599.16 549.853 600.386 552.926 600.397H963.249C966.323 600.386 969.267 599.16 971.441 596.987C973.614 594.813 974.84 591.869 974.851 588.795V12.0271C974.84 8.95345 973.614 6.00892 971.441 3.83553C969.267 1.66214 966.323 0.436184 963.249 0.424986H552.926Z" fill="#EBEBEB"/>
<path d="M957.574 761.382H911.676V761.913H957.574V761.382Z" fill="#EBEBEB"/>
<path d="M260.749 72.2686H112.43V235.123H260.749V72.2686Z" fill="#E6E6E6"/>
<path d="M273.436 72.2686H114.406V235.123H273.436V72.2686Z" fill="#F5F5F5"/>
<path d="M263.301 82.4043H124.543V224.965H263.301V82.4043Z" fill="white"/>
<path d="M173.14 204.397C165.209 196.459 160.754 185.698 160.754 174.478C160.754 163.257 165.209 152.496 173.14 144.559L214.618 102.995C222.549 110.932 227.004 121.694 227.004 132.914C227.004 144.134 222.549 154.896 214.618 162.833L173.14 204.397Z" fill="#F5F5F5"/>
<path d="M215.572 320.991H114.617V434.93H215.572V320.991Z" fill="#E6E6E6"/>
<path d="M230.171 320.991H117.082V434.93H230.171V320.991Z" fill="#F5F5F5"/>
<path d="M218.526 332.657H128.77V423.285H218.526V332.657Z" fill="white"/>
<path d="M165.496 359.562L155.204 369.854C150.723 374.335 150.722 381.6 155.204 386.082L165.496 396.374C169.977 400.855 177.242 400.855 181.724 396.374L192.016 386.082C196.497 381.6 196.497 374.335 192.016 369.854L181.724 359.562C177.242 355.08 169.977 355.08 165.496 359.562Z" fill="#F5F5F5"/>
<path d="M437.438 463.318H391.434V695.381H437.438V463.318Z" fill="#E6E6E6"/>
<path d="M391.431 463.34H192.941V695.403H391.431V463.34Z" fill="#F0F0F0"/>
<path d="M373.35 552.607H211.027V606.092H373.35V552.607Z" fill="#E6E6E6"/>
<path d="M373.35 618.034H211.027V671.518H373.35V618.034Z" fill="#E6E6E6"/>
<path d="M273.947 559.79H310.41C311.596 559.779 312.73 559.303 313.569 558.465C314.407 557.626 314.883 556.492 314.894 555.307C314.888 554.119 314.414 552.982 313.575 552.143C312.735 551.303 311.598 550.829 310.41 550.823H273.947C272.761 550.829 271.626 551.304 270.79 552.144C269.954 552.984 269.484 554.121 269.484 555.307C269.484 556.492 269.954 557.63 270.79 558.47C271.626 559.31 272.761 559.785 273.947 559.79Z" fill="#F0F0F0"/>
<path d="M373.35 487.202H211.027V540.687H373.35V487.202Z" fill="#E6E6E6"/>
<path d="M273.947 494.364H310.41C311.598 494.358 312.735 493.884 313.575 493.044C314.414 492.205 314.888 491.068 314.894 489.88C314.883 488.694 314.407 487.56 313.569 486.722C312.73 485.884 311.596 485.408 310.41 485.396H273.947C272.761 485.402 271.626 485.877 270.79 486.717C269.954 487.557 269.484 488.695 269.484 489.88C269.484 491.066 269.954 492.203 270.79 493.043C271.626 493.883 272.761 494.358 273.947 494.364Z" fill="#F0F0F0"/>
<path d="M273.947 625.216H310.41C311.602 625.211 312.742 624.733 313.582 623.889C314.422 623.045 314.894 621.902 314.894 620.711C314.888 619.526 314.414 618.391 313.573 617.555C312.733 616.718 311.596 616.249 310.41 616.249H273.947C273.361 616.249 272.78 616.364 272.239 616.589C271.698 616.813 271.206 617.142 270.791 617.556C270.377 617.97 270.048 618.462 269.824 619.004C269.6 619.545 269.484 620.125 269.484 620.711C269.482 621.3 269.595 621.884 269.818 622.429C270.04 622.974 270.368 623.47 270.783 623.888C271.197 624.306 271.69 624.639 272.233 624.867C272.775 625.095 273.358 625.213 273.947 625.216Z" fill="#F0F0F0"/>
<path d="M391.431 451.121H186.801V463.318H391.431V451.121Z" fill="#E6E6E6"/>
<path d="M443.855 451.143H391.434V463.34H443.855V451.143Z" fill="#E0E0E0"/>
<path d="M543.981 832.206C749.554 832.206 916.204 819.058 916.204 802.839C916.204 786.62 749.554 773.473 543.981 773.473C338.408 773.473 171.758 786.62 171.758 802.839C171.758 819.058 338.408 832.206 543.981 832.206Z" fill="#F5F5F5"/>
<path d="M844.954 156.883C841.891 146.741 837.834 136.926 832.842 127.581L840.385 102.889L791.639 54.0157L766.905 61.623C757.591 56.5708 747.778 52.4976 737.624 49.4684L725.512 26.668H656.6L644.467 49.4684C634.28 52.5 624.432 56.573 615.079 61.623L590.366 54.037L541.493 102.91L549.058 127.623C544.041 136.956 539.983 146.774 536.946 156.926L514.23 169.059V237.992L537.031 250.125C540.066 260.274 544.132 270.085 549.164 279.406L541.6 304.077L590.473 352.95L615.186 345.407C624.515 350.426 634.334 354.477 644.488 357.497L656.6 380.362H725.618L737.73 357.561C747.876 354.517 757.686 350.452 767.011 345.428L791.746 352.971L840.619 304.098L832.969 279.449C837.956 270.114 841.999 260.305 845.039 250.167L867.754 237.992V168.995L844.954 156.883ZM690.982 328.641C666.233 328.637 642.041 321.294 621.465 307.541C600.889 293.788 584.854 274.243 575.386 251.377C565.917 228.511 563.442 203.351 568.273 179.078C573.104 154.805 585.024 132.51 602.525 115.012C620.027 97.513 642.324 85.597 666.598 80.7703C690.871 75.9436 716.031 78.4229 738.896 87.8949C761.76 97.3668 781.303 113.406 795.052 133.984C808.801 154.562 816.14 178.755 816.14 203.504C816.134 236.694 802.945 268.523 779.474 291.99C756.003 315.458 724.172 328.641 690.982 328.641Z" fill="#01B0F1"/>
<path d="M690.982 95.919C669.701 95.9274 648.901 102.245 631.21 114.075C613.52 125.904 599.735 142.712 591.597 162.375C583.459 182.039 581.334 203.673 585.491 224.544C589.648 245.415 599.899 264.584 614.95 279.629C630.001 294.674 649.175 304.918 670.047 309.067C690.919 313.215 712.553 311.082 732.213 302.936C751.873 294.79 768.676 280.998 780.498 263.303C792.32 245.609 798.63 224.806 798.63 203.525C798.63 189.39 795.846 175.394 790.435 162.336C785.025 149.278 777.095 137.414 767.098 127.421C757.102 117.428 745.234 109.503 732.174 104.098C719.114 98.6926 705.116 95.9134 690.982 95.919ZM690.982 296.809C672.532 296.813 654.495 291.347 639.152 281.1C623.809 270.853 611.85 256.287 604.785 239.243C597.721 222.199 595.869 203.443 599.465 185.347C603.06 167.251 611.941 150.627 624.984 137.578C638.027 124.529 654.646 115.641 672.741 112.038C690.835 108.434 709.592 110.277 726.639 117.334C743.686 124.39 758.258 136.343 768.512 151.682C778.765 167.02 784.24 185.054 784.245 203.504C784.194 228.227 774.353 251.924 756.875 269.41C739.397 286.896 715.705 296.748 690.982 296.809Z" fill="#01B0F1"/>
<path opacity="0.4" d="M844.954 156.883C841.891 146.741 837.834 136.926 832.842 127.581L840.385 102.889L791.639 54.0157L766.905 61.623C757.591 56.5708 747.778 52.4976 737.624 49.4684L725.512 26.668H656.6L644.467 49.4684C634.28 52.5 624.432 56.573 615.079 61.623L590.366 54.037L541.493 102.91L549.058 127.623C544.041 136.956 539.983 146.774 536.946 156.926L514.23 169.059V237.992L537.031 250.125C540.066 260.274 544.132 270.085 549.164 279.406L541.6 304.077L590.473 352.95L615.186 345.407C624.515 350.426 634.334 354.477 644.488 357.497L656.6 380.362H725.618L737.73 357.561C747.876 354.517 757.686 350.452 767.011 345.428L791.746 352.971L840.619 304.098L832.969 279.449C837.956 270.114 841.999 260.305 845.039 250.167L867.754 237.992V168.995L844.954 156.883ZM690.982 328.641C666.233 328.637 642.041 321.294 621.465 307.541C600.889 293.788 584.854 274.243 575.386 251.377C565.917 228.511 563.442 203.351 568.273 179.078C573.104 154.805 585.024 132.51 602.525 115.012C620.027 97.513 642.324 85.597 666.598 80.7703C690.871 75.9436 716.031 78.4229 738.896 87.8949C761.76 97.3668 781.303 113.406 795.052 133.984C808.801 154.562 816.14 178.755 816.14 203.504C816.134 236.694 802.945 268.523 779.474 291.99C756.003 315.458 724.172 328.641 690.982 328.641Z" fill="white"/>
<path opacity="0.4" d="M690.982 95.919C669.701 95.9274 648.901 102.245 631.21 114.075C613.52 125.904 599.735 142.712 591.597 162.375C583.459 182.039 581.334 203.673 585.491 224.544C589.648 245.415 599.899 264.584 614.95 279.629C630.001 294.674 649.175 304.918 670.047 309.067C690.919 313.215 712.553 311.082 732.213 302.936C751.873 294.79 768.676 280.998 780.498 263.303C792.32 245.609 798.63 224.806 798.63 203.525C798.63 189.39 795.846 175.394 790.435 162.336C785.025 149.278 777.095 137.414 767.098 127.421C757.102 117.428 745.234 109.503 732.174 104.098C719.114 98.6926 705.116 95.9134 690.982 95.919ZM690.982 296.809C672.532 296.813 654.495 291.347 639.152 281.1C623.809 270.853 611.85 256.287 604.785 239.243C597.721 222.199 595.869 203.443 599.465 185.347C603.06 167.251 611.941 150.627 624.984 137.578C638.027 124.529 654.646 115.641 672.741 112.038C690.835 108.434 709.592 110.277 726.639 117.334C743.686 124.39 758.258 136.343 768.512 151.682C778.765 167.02 784.24 185.054 784.245 203.504C784.194 228.227 774.353 251.924 756.875 269.41C739.397 286.896 715.705 296.748 690.982 296.809Z" fill="white"/>
<path d="M410.789 293.495C409.188 288.118 407.052 282.914 404.414 277.962L408.431 264.851L382.485 238.948L369.374 242.964C364.423 240.326 359.219 238.191 353.841 236.59L347.466 224.562H310.748L304.373 236.59C298.995 238.191 293.792 240.326 288.84 242.964L275.729 238.948L249.847 264.851L253.842 277.962C251.212 282.918 249.077 288.121 247.468 293.495L235.355 299.87V336.504L247.468 342.878C249.068 348.256 251.204 353.46 253.842 358.411L249.847 371.522L275.729 397.425L288.84 393.409C293.796 396.038 298.999 398.174 304.373 399.784L310.748 411.79H347.381L353.756 399.784C359.131 398.174 364.333 396.038 369.289 393.409L382.4 397.425L408.303 371.522L404.287 358.411C406.925 353.459 409.06 348.256 410.662 342.878L422.753 336.504V299.934L410.789 293.495ZM329.065 370.269C318.772 370.269 308.711 367.217 300.153 361.498C291.595 355.78 284.925 347.653 280.986 338.144C277.048 328.635 276.017 318.171 278.025 308.077C280.033 297.982 284.989 288.71 292.267 281.432C299.545 274.154 308.818 269.198 318.912 267.19C329.007 265.182 339.47 266.212 348.979 270.151C358.488 274.09 366.616 280.76 372.334 289.318C378.052 297.875 381.104 307.937 381.104 318.229C381.098 332.029 375.614 345.262 365.856 355.02C356.098 364.778 342.865 370.263 329.065 370.269Z" fill="#263238"/>
<path d="M410.789 293.495C409.188 288.118 407.052 282.914 404.414 277.962L408.431 264.851L382.485 238.948L369.374 242.964C364.423 240.326 359.219 238.191 353.841 236.59L347.466 224.562H310.748L304.373 236.59C298.995 238.191 293.792 240.326 288.84 242.964L275.729 238.948L249.847 264.851L253.842 277.962C251.212 282.918 249.077 288.121 247.468 293.495L235.355 299.87V336.504L247.468 342.878C249.068 348.256 251.204 353.46 253.842 358.411L249.847 371.522L275.729 397.425L288.84 393.409C293.796 396.038 298.999 398.174 304.373 399.784L310.748 411.79H347.381L353.756 399.784C359.131 398.174 364.333 396.038 369.289 393.409L382.4 397.425L408.303 371.522L404.287 358.411C406.925 353.459 409.06 348.256 410.662 342.878L422.753 336.504V299.934L410.789 293.495ZM329.065 370.269C318.772 370.269 308.711 367.217 300.153 361.498C291.595 355.78 284.925 347.653 280.986 338.144C277.048 328.635 276.017 318.171 278.025 308.077C280.033 297.982 284.989 288.71 292.267 281.432C299.545 274.154 308.818 269.198 318.912 267.19C329.007 265.182 339.47 266.212 348.979 270.151C358.488 274.09 366.616 280.76 372.334 289.318C378.052 297.875 381.104 307.937 381.104 318.229C381.098 332.029 375.614 345.262 365.856 355.02C356.098 364.778 342.865 370.263 329.065 370.269Z" fill="#01B0F1"/>
<path d="M329.063 300.996C325.65 300.996 322.314 302.008 319.477 303.904C316.639 305.8 314.428 308.495 313.122 311.648C311.816 314.8 311.474 318.27 312.14 321.617C312.806 324.964 314.449 328.038 316.862 330.451C319.275 332.864 322.35 334.508 325.697 335.173C329.044 335.839 332.513 335.497 335.666 334.191C338.819 332.886 341.514 330.674 343.409 327.837C345.305 324.999 346.317 321.663 346.317 318.251C346.317 313.674 344.499 309.286 341.264 306.05C338.028 302.814 333.639 300.996 329.063 300.996Z" fill="#263238"/>
<path opacity="0.4" d="M410.789 293.495C409.188 288.118 407.052 282.914 404.414 277.962L408.431 264.851L382.485 238.948L369.374 242.964C364.423 240.326 359.219 238.191 353.841 236.59L347.466 224.562H310.748L304.373 236.59C298.995 238.191 293.792 240.326 288.84 242.964L275.729 238.948L249.847 264.851L253.842 277.962C251.212 282.918 249.077 288.121 247.468 293.495L235.355 299.87V336.504L247.468 342.878C249.068 348.256 251.204 353.46 253.842 358.411L249.847 371.522L275.729 397.425L288.84 393.409C293.796 396.038 298.999 398.174 304.373 399.784L310.748 411.79H347.381L353.756 399.784C359.131 398.174 364.333 396.038 369.289 393.409L382.4 397.425L408.303 371.522L404.287 358.411C406.925 353.459 409.06 348.256 410.662 342.878L422.753 336.504V299.934L410.789 293.495ZM329.065 370.269C318.772 370.269 308.711 367.217 300.153 361.498C291.595 355.78 284.925 347.653 280.986 338.144C277.048 328.635 276.017 318.171 278.025 308.077C280.033 297.982 284.989 288.71 292.267 281.432C299.545 274.154 308.818 269.198 318.912 267.19C329.007 265.182 339.47 266.212 348.979 270.151C358.488 274.09 366.616 280.76 372.334 289.318C378.052 297.875 381.104 307.937 381.104 318.229C381.098 332.029 375.614 345.262 365.856 355.02C356.098 364.778 342.865 370.263 329.065 370.269Z" fill="white"/>
<path opacity="0.2" d="M329.063 300.996C325.65 300.996 322.314 302.008 319.477 303.904C316.639 305.8 314.428 308.495 313.122 311.648C311.816 314.8 311.474 318.27 312.14 321.617C312.806 324.964 314.449 328.038 316.862 330.451C319.275 332.864 322.35 334.508 325.697 335.173C329.044 335.839 332.513 335.497 335.666 334.191C338.819 332.886 341.514 330.674 343.409 327.837C345.305 324.999 346.317 321.663 346.317 318.251C346.317 313.674 344.499 309.286 341.264 306.05C338.028 302.814 333.639 300.996 329.063 300.996Z" fill="white"/>
<path d="M444.108 260.282L430.084 254.503L429.574 249.233C428.262 248.127 427.04 246.919 425.919 245.62L420.692 245.089L414.891 231.086L418.269 227.07C418.121 225.352 418.121 223.624 418.269 221.906L414.891 217.911L420.734 203.993L425.961 203.483C427.098 202.145 428.334 200.895 429.659 199.743L430.169 194.495L444.193 188.715L448.188 192.072C449.907 191.945 451.633 191.945 453.352 192.072L457.347 188.715L471.371 194.495L471.86 199.743C473.161 200.868 474.383 202.082 475.515 203.377L480.742 203.887L486.522 217.89L483.164 221.885C483.313 223.603 483.313 225.331 483.164 227.048L486.522 231.065L480.742 245.068L475.515 245.599C474.394 246.904 473.172 248.119 471.86 249.233L471.371 254.481L457.347 260.261L453.352 256.904C451.64 257.031 449.921 257.031 448.209 256.904L444.108 260.282ZM454.265 253.908L457.899 256.904L468.524 252.505L468.949 247.809L469.459 247.427C470.949 246.22 472.322 244.875 473.56 243.41L473.942 242.922L478.638 242.475L483.037 231.851L480.232 228.111V227.495C480.423 225.566 480.423 223.623 480.232 221.694V220.992L483.228 217.338L478.83 206.713L474.155 206.288L473.751 205.778C472.501 204.343 471.113 203.033 469.607 201.868L469.097 201.464L468.672 196.79L458.048 192.37L454.35 195.493H453.734C451.806 195.281 449.861 195.281 447.933 195.493H447.296L443.662 192.476L433.037 196.896L432.591 201.571L432.124 201.974C430.617 203.162 429.236 204.501 428.001 205.969L427.598 206.479L422.902 206.904L418.46 217.529L421.478 221.162V221.779C421.265 223.706 421.265 225.652 421.478 227.58V228.217L418.46 231.617L422.88 242.242L427.555 242.688L427.959 243.155C429.178 244.669 430.553 246.05 432.06 247.278L432.549 247.66L432.995 252.378L443.62 256.776L447.274 253.78H447.891C449.82 253.971 451.763 253.971 453.692 253.78L454.265 253.908Z" fill="#263238"/>
<path d="M457.049 239.522C454.075 240.758 450.802 241.083 447.643 240.458C444.483 239.832 441.581 238.283 439.302 236.008C437.023 233.732 435.471 230.831 434.841 227.673C434.212 224.514 434.533 221.24 435.765 218.265C436.997 215.289 439.084 212.746 441.762 210.957C444.44 209.168 447.588 208.213 450.809 208.214C454.029 208.215 457.177 209.171 459.854 210.961C462.531 212.752 464.616 215.296 465.847 218.273C466.666 220.244 467.089 222.358 467.091 224.493C467.093 226.627 466.675 228.742 465.86 230.715C465.045 232.688 463.849 234.482 462.341 235.993C460.833 237.504 459.042 238.703 457.071 239.522H457.049Z" fill="#263238"/>
<path d="M339.987 227.069C339.722 227.069 339.468 226.964 339.281 226.777C339.094 226.589 338.988 226.335 338.988 226.07V220.992C338.988 220.727 339.094 220.473 339.281 220.286C339.468 220.098 339.722 219.993 339.987 219.993C340.252 219.993 340.506 220.098 340.693 220.286C340.88 220.473 340.986 220.727 340.986 220.992V225.985C340.998 226.124 340.98 226.263 340.936 226.394C340.891 226.525 340.819 226.645 340.725 226.747C340.631 226.849 340.517 226.93 340.39 226.986C340.263 227.041 340.126 227.07 339.987 227.069Z" fill="#01B0F1"/>
<path d="M339.987 212.046C339.722 212.046 339.468 211.941 339.281 211.754C339.094 211.566 338.988 211.312 338.988 211.047V201.018C338.988 200.753 339.094 200.499 339.281 200.312C339.468 200.124 339.722 200.019 339.987 200.019C340.252 200.019 340.506 200.124 340.693 200.312C340.88 200.499 340.986 200.753 340.986 201.018V211.047C340.986 211.312 340.88 211.566 340.693 211.754C340.506 211.941 340.252 212.046 339.987 212.046ZM339.987 191.987C339.722 191.987 339.468 191.882 339.281 191.694C339.094 191.507 338.988 191.253 338.988 190.988V180.958C338.988 180.694 339.094 180.44 339.281 180.252C339.468 180.065 339.722 179.96 339.987 179.96C340.252 179.96 340.506 180.065 340.693 180.252C340.88 180.44 340.986 180.694 340.986 180.958V190.988C340.986 191.253 340.88 191.507 340.693 191.694C340.506 191.882 340.252 191.987 339.987 191.987ZM339.987 171.949C339.72 171.943 339.466 171.833 339.279 171.643C339.093 171.452 338.988 171.196 338.988 170.929V160.92C338.988 160.656 339.094 160.402 339.281 160.214C339.468 160.027 339.722 159.922 339.987 159.922C340.252 159.922 340.506 160.027 340.693 160.214C340.88 160.402 340.986 160.656 340.986 160.92V170.929C340.986 171.196 340.881 171.452 340.695 171.643C340.508 171.833 340.254 171.943 339.987 171.949ZM339.987 151.826C339.859 151.834 339.73 151.817 339.61 151.774C339.489 151.731 339.378 151.663 339.284 151.575C339.191 151.488 339.116 151.382 339.065 151.264C339.014 151.146 338.988 151.019 338.988 150.891V150.742C338.988 147.329 339.555 143.939 340.667 140.712C340.758 140.465 340.942 140.262 341.18 140.147C341.418 140.032 341.691 140.014 341.942 140.096C342.068 140.137 342.185 140.202 342.285 140.289C342.384 140.376 342.466 140.482 342.523 140.602C342.581 140.721 342.614 140.85 342.62 140.983C342.626 141.115 342.605 141.247 342.558 141.371C341.514 144.385 340.983 147.552 340.986 150.742C340.987 151.015 340.884 151.279 340.699 151.48C340.514 151.681 340.259 151.804 339.987 151.826ZM346.362 133.296C346.138 133.3 345.92 133.225 345.746 133.084C345.642 133.003 345.556 132.903 345.492 132.788C345.427 132.674 345.386 132.548 345.37 132.418C345.354 132.288 345.364 132.156 345.4 132.029C345.435 131.903 345.495 131.785 345.576 131.681C347.735 128.977 350.336 126.657 353.268 124.818C353.379 124.748 353.504 124.701 353.633 124.679C353.763 124.658 353.896 124.662 354.024 124.691C354.153 124.721 354.274 124.775 354.381 124.852C354.488 124.928 354.579 125.025 354.649 125.137C354.719 125.248 354.766 125.373 354.788 125.502C354.809 125.632 354.805 125.765 354.776 125.893C354.746 126.022 354.692 126.143 354.615 126.25C354.539 126.357 354.442 126.448 354.33 126.518C351.591 128.219 349.162 130.374 347.148 132.893C346.997 133.096 346.779 133.24 346.532 133.296H346.362ZM363.042 122.884C362.795 122.886 362.555 122.796 362.37 122.631C362.185 122.466 362.068 122.239 362.042 121.992C362.015 121.746 362.081 121.499 362.227 121.298C362.373 121.098 362.587 120.959 362.83 120.908C365.006 120.423 367.23 120.181 369.46 120.186H373.008C373.139 120.186 373.269 120.211 373.391 120.262C373.512 120.312 373.622 120.385 373.715 120.478C373.807 120.571 373.881 120.681 373.931 120.802C373.981 120.923 374.007 121.053 374.007 121.184C374.007 121.315 373.981 121.445 373.931 121.567C373.881 121.688 373.807 121.798 373.715 121.891C373.622 121.983 373.512 122.057 373.391 122.107C373.269 122.157 373.139 122.183 373.008 122.183H369.736C367.649 122.185 365.569 122.413 363.531 122.863L363.042 122.884ZM533.44 122.183H523.58C523.316 122.183 523.062 122.078 522.874 121.891C522.687 121.703 522.582 121.449 522.582 121.184C522.582 120.919 522.687 120.665 522.874 120.478C523.062 120.291 523.316 120.186 523.58 120.186H533.61C533.741 120.186 533.871 120.211 533.992 120.262C534.113 120.312 534.224 120.385 534.316 120.478C534.409 120.571 534.483 120.681 534.533 120.802C534.583 120.923 534.609 121.053 534.609 121.184C534.609 121.315 534.583 121.445 534.533 121.567C534.483 121.688 534.409 121.798 534.316 121.891C534.224 121.983 534.113 122.057 533.992 122.107C533.871 122.157 533.741 122.183 533.61 122.183H533.44ZM513.381 122.183H503.606C503.475 122.183 503.345 122.157 503.224 122.107C503.103 122.057 502.993 121.983 502.9 121.891C502.807 121.798 502.734 121.688 502.683 121.567C502.633 121.445 502.607 121.315 502.607 121.184C502.607 121.053 502.633 120.923 502.683 120.802C502.734 120.681 502.807 120.571 502.9 120.478C502.993 120.385 503.103 120.312 503.224 120.262C503.345 120.211 503.475 120.186 503.606 120.186H513.615C513.746 120.186 513.876 120.211 513.997 120.262C514.118 120.312 514.228 120.385 514.321 120.478C514.414 120.571 514.487 120.681 514.537 120.802C514.587 120.923 514.613 121.053 514.613 121.184C514.613 121.315 514.587 121.445 514.537 121.567C514.487 121.688 514.414 121.798 514.321 121.891C514.228 121.983 514.118 122.057 513.997 122.107C513.876 122.157 513.746 122.183 513.615 122.183H513.381ZM493.343 122.183H483.313C483.048 122.183 482.794 122.078 482.607 121.891C482.42 121.703 482.314 121.449 482.314 121.184C482.314 120.919 482.42 120.665 482.607 120.478C482.794 120.291 483.048 120.186 483.313 120.186H493.343C493.474 120.186 493.604 120.211 493.725 120.262C493.846 120.312 493.956 120.385 494.049 120.478C494.142 120.571 494.215 120.681 494.265 120.802C494.316 120.923 494.342 121.053 494.342 121.184C494.342 121.315 494.316 121.445 494.265 121.567C494.215 121.688 494.142 121.798 494.049 121.891C493.956 121.983 493.846 122.057 493.725 122.107C493.604 122.157 493.474 122.183 493.343 122.183ZM473.283 122.183H463.254C462.989 122.183 462.735 122.078 462.548 121.891C462.36 121.703 462.255 121.449 462.255 121.184C462.255 120.919 462.36 120.665 462.548 120.478C462.735 120.291 462.989 120.186 463.254 120.186H473.283C473.415 120.186 473.545 120.211 473.666 120.262C473.787 120.312 473.897 120.385 473.99 120.478C474.082 120.571 474.156 120.681 474.206 120.802C474.256 120.923 474.282 121.053 474.282 121.184C474.282 121.315 474.256 121.445 474.206 121.567C474.156 121.688 474.082 121.798 473.99 121.891C473.897 121.983 473.787 122.057 473.666 122.107C473.545 122.157 473.415 122.183 473.283 122.183ZM453.224 122.183H443.195C442.93 122.183 442.676 122.078 442.488 121.891C442.301 121.703 442.196 121.449 442.196 121.184C442.196 120.919 442.301 120.665 442.488 120.478C442.676 120.291 442.93 120.186 443.195 120.186H453.224C453.355 120.186 453.485 120.211 453.606 120.262C453.728 120.312 453.838 120.385 453.93 120.478C454.023 120.571 454.097 120.681 454.147 120.802C454.197 120.923 454.223 121.053 454.223 121.184C454.223 121.315 454.197 121.445 454.147 121.567C454.097 121.688 454.023 121.798 453.93 121.891C453.838 121.983 453.728 122.057 453.606 122.107C453.485 122.157 453.355 122.183 453.224 122.183ZM433.165 122.183H423.157C423.025 122.183 422.896 122.157 422.774 122.107C422.653 122.057 422.543 121.983 422.45 121.891C422.358 121.798 422.284 121.688 422.234 121.567C422.184 121.445 422.158 121.315 422.158 121.184C422.158 121.053 422.184 120.923 422.234 120.802C422.284 120.681 422.358 120.571 422.45 120.478C422.543 120.385 422.653 120.312 422.774 120.262C422.896 120.211 423.025 120.186 423.157 120.186H433.165C433.296 120.186 433.426 120.211 433.547 120.262C433.668 120.312 433.778 120.385 433.871 120.478C433.964 120.571 434.037 120.681 434.088 120.802C434.138 120.923 434.164 121.053 434.164 121.184C434.164 121.315 434.138 121.445 434.088 121.567C434.037 121.688 433.964 121.798 433.871 121.891C433.778 121.983 433.668 122.057 433.547 122.107C433.426 122.157 433.296 122.183 433.165 122.183ZM413.127 122.183H403.097C402.832 122.183 402.578 122.078 402.391 121.891C402.204 121.703 402.099 121.449 402.099 121.184C402.099 120.919 402.204 120.665 402.391 120.478C402.578 120.291 402.832 120.186 403.097 120.186H413.127C413.258 120.186 413.388 120.211 413.509 120.262C413.63 120.312 413.74 120.385 413.833 120.478C413.926 120.571 413.999 120.681 414.05 120.802C414.1 120.923 414.126 121.053 414.126 121.184C414.126 121.315 414.1 121.445 414.05 121.567C413.999 121.688 413.926 121.798 413.833 121.891C413.74 121.983 413.63 122.057 413.509 122.107C413.388 122.157 413.258 122.183 413.127 122.183ZM393.068 122.183H383.038C382.773 122.183 382.519 122.078 382.332 121.891C382.144 121.703 382.039 121.449 382.039 121.184C382.039 120.919 382.144 120.665 382.332 120.478C382.519 120.291 382.773 120.186 383.038 120.186H393.068C393.199 120.186 393.329 120.211 393.45 120.262C393.571 120.312 393.681 120.385 393.774 120.478C393.867 120.571 393.94 120.681 393.99 120.802C394.041 120.923 394.066 121.053 394.066 121.184C394.066 121.315 394.041 121.445 393.99 121.567C393.94 121.688 393.867 121.798 393.774 121.891C393.681 121.983 393.571 122.057 393.45 122.107C393.329 122.157 393.199 122.183 393.068 122.183Z" fill="#01B0F1"/>
<path d="M548.674 122.183H543.659C543.394 122.183 543.14 122.078 542.953 121.89C542.765 121.703 542.66 121.449 542.66 121.184C542.66 120.919 542.765 120.665 542.953 120.478C543.14 120.291 543.394 120.186 543.659 120.186H548.674C548.939 120.186 549.193 120.291 549.38 120.478C549.567 120.665 549.672 120.919 549.672 121.184C549.672 121.449 549.567 121.703 549.38 121.89C549.193 122.078 548.939 122.183 548.674 122.183Z" fill="#01B0F1"/>
<path d="M339.477 800.608H349.953L349.953 473.221H339.477L339.477 800.608Z" fill="#263238"/>
<path d="M771.074 620.054H598.062V596.063H771.074C773.164 596.063 775.17 596.894 776.648 598.372C778.126 599.851 778.957 601.856 778.957 603.947V612.17C778.957 613.205 778.753 614.231 778.357 615.187C777.961 616.144 777.38 617.013 776.648 617.745C775.916 618.477 775.047 619.057 774.09 619.454C773.134 619.85 772.109 620.054 771.074 620.054Z" fill="#01B0F1"/>
<path d="M764.42 802.414L751.883 604.265" stroke="#01B0F1" stroke-width="2.8255" stroke-linecap="round" stroke-linejoin="round"/>
<path d="M716.42 812.231L703.883 614.082" stroke="#01B0F1" stroke-width="2.8255" stroke-linecap="round" stroke-linejoin="round"/>
<path d="M590.602 802.414L603.139 604.265" stroke="#01B0F1" stroke-width="2.8255" stroke-linecap="round" stroke-linejoin="round"/>
<path d="M638.605 812.231L651.143 614.082" stroke="#01B0F1" stroke-width="2.8255" stroke-linecap="round" stroke-linejoin="round"/>
<path d="M786.437 604.265H613.425V580.274H786.437C788.528 580.274 790.533 581.105 792.011 582.583C793.49 584.062 794.32 586.067 794.32 588.158V596.381C794.32 598.472 793.49 600.477 792.011 601.956C790.533 603.434 788.528 604.265 786.437 604.265Z" fill="#01B0F1"/>
<path opacity="0.2" d="M786.437 604.265H613.425V580.274H786.437C788.528 580.274 790.533 581.105 792.011 582.583C793.49 584.062 794.32 586.067 794.32 588.158V596.381C794.32 598.472 793.49 600.477 792.011 601.956C790.533 603.434 788.528 604.265 786.437 604.265Z" fill="black"/>
<path d="M612.192 808.428H622.668V481.041H612.192V808.428Z" fill="#263238"/>
<path d="M647.89 505.945C647.89 505.945 528.151 510.45 508.262 558.516C508.262 558.516 511.024 701.672 527.046 748.654L561.321 744.766L555.839 605.604L679.701 505.988L647.89 505.945Z" fill="#263238"/>
<path opacity="0.2" d="M647.89 505.945C647.89 505.945 528.151 510.45 508.262 558.516C508.262 558.516 511.024 701.672 527.046 748.654L561.321 744.766L555.839 605.604L679.701 505.988L647.89 505.945Z" fill="black"/>
<path d="M555.646 780.592H534.248L533.951 766.333L533.738 755.156L554.648 756.431L555.051 766.333L555.646 780.592Z" fill="#B55B52"/>
<path opacity="0.2" d="M555.051 766.333H533.951L533.738 755.156L554.648 756.431L555.051 766.333Z" fill="black"/>
<path d="M565.211 759.704L519.398 761.085L511.047 744.085L563.936 743.597L565.211 759.704Z" fill="#01B0F1"/>
<path d="M528.767 783.821C528.767 783.821 529.872 771.262 525.495 773.005C521.118 774.747 526.005 781.164 528.767 783.821Z" stroke="#01B0F1" stroke-width="0.941833" stroke-miterlimit="10"/>
<path d="M528.767 783.821C528.767 783.821 519.354 777.234 516.953 780.591C514.552 783.949 528.767 783.821 528.767 783.821Z" stroke="#01B0F1" stroke-width="0.941833" stroke-miterlimit="10"/>
<path d="M536.227 777.723L553.227 777.893C554.426 777.92 555.572 778.392 556.443 779.217C557.315 780.041 557.85 781.159 557.944 782.355L559.134 797.378C559.191 798.03 559.11 798.686 558.896 799.304C558.682 799.922 558.341 800.488 557.894 800.965C557.447 801.442 556.904 801.82 556.301 802.073C555.698 802.326 555.049 802.45 554.395 802.436C545.194 802.159 526.261 801.671 519.547 801.862C510.558 802.117 497.787 802.266 495.96 798.844C495.44 797.927 495.264 796.855 495.462 795.819C495.661 794.783 496.221 793.852 497.044 793.192C497.044 793.192 521.544 790.918 532.806 779.274C533.244 778.8 533.772 778.418 534.359 778.152C534.947 777.885 535.582 777.739 536.227 777.723Z" fill="#263238"/>
<path d="M755.327 505.945C755.327 505.945 757.601 533.846 756.751 555.414C755.773 580.275 702.247 602.162 624.326 589.412C624.326 589.412 618.248 631.422 596.702 670.159C575.155 708.897 541.453 766.334 541.453 766.334L508.305 744.766C508.305 744.766 551.951 623.645 560.259 590.029C568.568 556.412 571.861 540.284 595.618 529.787C619.374 519.29 671.329 505.945 671.329 505.945H755.327Z" fill="#263238"/>
<path d="M528.769 760L524.838 766.035L516.189 779.358L499.594 769.69L508.285 756.176L511.663 750.948L528.769 760Z" fill="#B55B52"/>
<path opacity="0.2" d="M528.766 760L524.834 766.035L508.281 756.176L511.66 750.948L528.766 760Z" fill="black"/>
<path d="M550.082 755.156L506.627 729.146L499.594 746.507L540.839 770.327L550.082 755.156Z" fill="#01B0F1"/>
<path d="M488.222 770.327C488.222 770.327 491.388 759.448 487.839 759.235C484.291 759.023 488.222 770.327 488.222 770.327Z" stroke="#01B0F1" stroke-width="0.941833" stroke-miterlimit="10"/>
<path d="M487.395 769.924C487.395 769.924 482.487 758.11 478.534 760.745C474.582 763.379 487.395 769.924 487.395 769.924Z" stroke="#01B0F1" stroke-width="0.941833" stroke-miterlimit="10"/>
<path d="M501.738 768.501L516.23 777C517.249 777.598 518.002 778.56 518.338 779.693C518.673 780.825 518.565 782.043 518.036 783.099L511.47 796.422C511.18 797.004 510.772 797.52 510.272 797.936C509.772 798.353 509.191 798.66 508.565 798.84C507.94 799.02 507.284 799.068 506.639 798.981C505.994 798.894 505.375 798.674 504.819 798.335C497.021 793.532 480.935 783.694 475.071 780.528C467.166 776.278 456.095 770.073 456.244 766.269C456.274 765.226 456.672 764.227 457.368 763.449C458.064 762.671 459.013 762.165 460.047 762.02C460.047 762.02 482.316 772.262 497.935 768.012C498.569 767.836 499.233 767.789 499.886 767.873C500.539 767.957 501.169 768.17 501.738 768.501Z" fill="#263238"/>
<path d="M620.817 384.016C620.817 384.016 616.355 432.762 618.14 445.299C618.14 445.299 571.562 452.12 548.017 448.89L532.251 444.938L512.531 449.762L517.907 465.38H533.674C533.674 465.38 545.149 468.61 550.164 465.38C550.164 465.38 589.581 473.263 612.87 470.756C636.159 468.248 643.384 459.387 644.425 441.729C645.403 424.73 656.601 386.864 647.655 378.258L620.817 384.016Z" fill="#B55B52"/>
<path d="M780.785 389.499C780.785 389.499 762.914 344.11 745.533 333.868C728.151 323.626 647.659 343.218 647.659 343.218C647.659 343.218 613.129 354.331 611.152 408.283L642.878 421.734L647.892 505.944H755.328L754.755 396.872L780.785 389.499Z" fill="#01B0F1"/>
<path d="M649.121 254.269C649.121 254.269 638.497 252.93 635.607 244.962C632.717 236.993 643.809 241.009 642.874 226.602C641.939 212.195 658.492 208.753 670.498 215.085C682.504 221.417 701.565 214.511 708.747 223.16C715.929 231.808 712.784 239.862 712.784 239.862C712.784 239.862 733.438 263.236 707.259 279.194C681.08 295.152 649.121 254.269 649.121 254.269Z" fill="#263238"/>
<path d="M711.597 331.935C700.122 349.423 689.795 351.229 675.962 351.208C660.428 351.208 665.635 340.179 665.635 340.179C672.137 336.928 676.875 333.443 677.619 325.432C677.77 323.879 677.805 322.316 677.725 320.757C677.574 317.151 676.952 313.579 675.877 310.133C653.884 312.13 646.128 301.399 643.387 281.149C641.857 268.693 644.123 256.066 649.889 244.919C662.638 259.921 686.629 248.17 686.629 248.17C679.893 267.656 696.382 274.647 696.382 274.647C702.757 270.652 707.857 274.137 707.368 281.893C707.273 284.056 706.532 286.142 705.241 287.88C703.949 289.619 702.166 290.93 700.122 291.646C698.868 326.176 711.597 331.935 711.597 331.935Z" fill="#B55B52"/>
<path d="M655.943 289.118C655.77 289.118 655.603 289.052 655.477 288.934C655.35 288.815 655.274 288.653 655.263 288.48C655.257 288.391 655.269 288.301 655.298 288.217C655.327 288.132 655.373 288.054 655.432 287.987C655.491 287.919 655.563 287.865 655.643 287.825C655.724 287.786 655.811 287.763 655.901 287.758C663.593 287.354 666.525 283.657 666.631 283.614C666.685 283.545 666.753 283.487 666.829 283.444C666.905 283.402 666.99 283.374 667.077 283.365C667.164 283.355 667.252 283.362 667.336 283.387C667.42 283.411 667.498 283.453 667.566 283.508C667.638 283.562 667.698 283.63 667.743 283.707C667.788 283.785 667.817 283.871 667.829 283.959C667.841 284.048 667.835 284.139 667.812 284.225C667.789 284.312 667.749 284.393 667.694 284.464C667.566 284.634 664.337 288.714 655.986 289.118H655.943Z" fill="#263238"/>
<path d="M655.942 280.745L654.688 267.847L649.121 279.576C650.058 280.348 651.18 280.862 652.376 281.067C653.573 281.272 654.802 281.161 655.942 280.745Z" fill="#A02724"/>
<path d="M664.527 267.847C664.527 269.462 665.271 270.78 666.206 270.78C667.141 270.78 667.885 269.462 667.885 267.847C667.885 266.233 667.141 264.915 666.206 264.915C665.271 264.915 664.527 266.233 664.527 267.847Z" fill="#263238"/>
<path d="M647.444 270.78C648.371 270.78 649.123 269.467 649.123 267.847C649.123 266.228 648.371 264.915 647.444 264.915C646.517 264.915 645.766 266.228 645.766 267.847C645.766 269.467 646.517 270.78 647.444 270.78Z" fill="#263238"/>
<path d="M675.726 261.366C675.58 261.37 675.436 261.337 675.306 261.27C675.176 261.203 675.065 261.105 674.983 260.984C674.876 260.814 672.093 257.074 665.633 258.264C665.516 258.288 665.395 258.289 665.277 258.266C665.159 258.242 665.047 258.196 664.948 258.128C664.849 258.061 664.765 257.974 664.7 257.873C664.635 257.772 664.591 257.659 664.571 257.541C664.532 257.305 664.586 257.064 664.72 256.866C664.855 256.669 665.06 256.53 665.293 256.479C672.943 255.076 676.321 259.73 676.47 259.942C676.562 260.079 676.615 260.238 676.624 260.402C676.634 260.566 676.598 260.73 676.522 260.876C676.446 261.021 676.332 261.144 676.192 261.23C676.052 261.317 675.891 261.364 675.726 261.366Z" fill="#263238"/>
<path d="M644.598 260.176C644.45 260.173 644.305 260.137 644.173 260.07C644.068 260.016 643.975 259.942 643.898 259.851C643.822 259.761 643.765 259.657 643.729 259.544C643.693 259.431 643.68 259.313 643.691 259.195C643.702 259.077 643.736 258.963 643.791 258.859C644.507 257.664 645.562 256.71 646.822 256.116C648.082 255.522 649.49 255.315 650.867 255.522C650.984 255.538 651.098 255.577 651.2 255.637C651.303 255.697 651.392 255.777 651.464 255.872C651.535 255.967 651.586 256.075 651.615 256.19C651.644 256.305 651.65 256.425 651.632 256.542C651.619 256.659 651.582 256.772 651.525 256.875C651.467 256.977 651.389 257.067 651.296 257.138C651.202 257.209 651.096 257.261 650.982 257.29C650.868 257.32 650.749 257.325 650.633 257.307C649.625 257.156 648.594 257.3 647.667 257.723C646.739 258.145 645.953 258.827 645.406 259.687C645.325 259.832 645.208 259.953 645.066 260.038C644.925 260.124 644.764 260.171 644.598 260.176Z" fill="#263238"/>
<path d="M643.151 277.898C641.164 277.893 639.223 277.3 637.573 276.193C635.923 275.087 634.638 273.515 633.88 271.678C633.123 269.841 632.927 267.821 633.317 265.873C633.707 263.925 634.666 262.136 636.072 260.732C637.479 259.329 639.27 258.374 641.219 257.987C643.168 257.601 645.188 257.802 647.023 258.563C648.859 259.324 650.427 260.613 651.53 262.265C652.634 263.917 653.223 265.86 653.223 267.847C653.223 269.168 652.962 270.477 652.456 271.698C651.949 272.919 651.207 274.028 650.272 274.961C649.336 275.895 648.225 276.635 647.004 277.139C645.782 277.643 644.472 277.9 643.151 277.898ZM643.151 259.135C641.428 259.135 639.743 259.646 638.31 260.603C636.878 261.56 635.761 262.921 635.102 264.513C634.442 266.105 634.27 267.856 634.606 269.546C634.942 271.236 635.772 272.789 636.99 274.007C638.209 275.226 639.761 276.055 641.451 276.392C643.141 276.728 644.893 276.555 646.485 275.896C648.077 275.236 649.437 274.12 650.395 272.687C651.352 271.254 651.863 269.57 651.863 267.847C651.835 265.555 650.905 263.366 649.274 261.755C647.643 260.144 645.443 259.241 643.151 259.241V259.135Z" fill="white"/>
<path d="M667.227 277.898C665.239 277.898 663.296 277.308 661.643 276.204C659.99 275.099 658.702 273.53 657.941 271.693C657.18 269.857 656.981 267.836 657.369 265.886C657.757 263.936 658.714 262.145 660.12 260.74C661.525 259.334 663.316 258.377 665.266 257.989C667.215 257.601 669.236 257.8 671.073 258.561C672.91 259.322 674.479 260.61 675.584 262.263C676.688 263.916 677.278 265.859 677.278 267.847C677.272 270.511 676.211 273.064 674.328 274.948C672.444 276.831 669.891 277.892 667.227 277.898ZM667.227 259.135C665.503 259.13 663.816 259.638 662.381 260.593C660.945 261.547 659.825 262.906 659.163 264.498C658.5 266.09 658.324 267.842 658.658 269.533C658.992 271.225 659.82 272.779 661.037 274C662.255 275.22 663.807 276.052 665.498 276.39C667.188 276.728 668.941 276.557 670.534 275.898C672.128 275.239 673.49 274.122 674.448 272.689C675.406 271.256 675.918 269.571 675.918 267.847C675.884 265.56 674.955 263.378 673.33 261.768C671.705 260.159 669.514 259.252 667.227 259.241V259.135Z" fill="white"/>
<path d="M653.223 267.847H657.09" stroke="white" stroke-width="0.941833" stroke-miterlimit="10"/>
<path d="M676.555 269.695L695.403 274.221" stroke="white" stroke-width="0.941833" stroke-linecap="round" stroke-linejoin="round"/>
<path opacity="0.2" d="M683.163 308.114C681.959 312.539 680.127 316.768 677.724 320.673C677.572 317.066 676.95 313.494 675.875 310.048L683.163 308.114Z" fill="black"/>
<path opacity="0.2" d="M642.877 421.734V408.283L637.438 419.439L642.877 421.734Z" fill="black"/>
<path opacity="0.2" d="M731.551 403.778L727.407 379.575L726.238 405.924L731.551 403.778Z" fill="black"/>
<path d="M761.191 454.564C760.936 472.264 752.968 481.083 729.658 483.59C706.347 486.098 666.951 478.214 666.951 478.214C661.936 481.444 650.462 478.214 650.462 478.214H634.695L629.34 462.596L649.038 457.794L664.805 461.725C688.455 464.955 735.034 458.155 735.034 458.155C733.695 448.763 732.186 418.1 731.549 403.778L759.343 395.555C762.084 414.36 761.425 439.307 761.191 454.564Z" fill="#B55B52"/>
<path d="M350.126 362.13L368.931 457.985C369.348 460.062 370.471 461.932 372.109 463.276C373.748 464.62 375.801 465.356 377.92 465.358H537.14C538.477 465.358 539.796 465.064 541.007 464.498C542.217 463.932 543.289 463.107 544.146 462.082C545.003 461.056 545.624 459.856 545.967 458.564C546.31 457.272 546.365 455.921 546.129 454.606L529.129 358.751C528.755 356.64 527.648 354.729 526.004 353.354C524.36 351.978 522.284 351.226 520.141 351.229H359.114C357.762 351.221 356.424 351.515 355.199 352.089C353.974 352.662 352.892 353.501 352.032 354.545C351.171 355.589 350.554 356.811 350.224 358.123C349.894 359.434 349.861 360.803 350.126 362.13Z" fill="#01B0F1"/>
<path opacity="0.2" d="M522.457 351.229L542.346 465.358C543.044 465.36 543.734 465.208 544.367 464.914C545 464.619 545.561 464.189 546.009 463.654C546.457 463.118 546.782 462.491 546.961 461.816C547.139 461.141 547.167 460.435 547.042 459.748L528.407 355.138C528.211 354.037 527.633 353.041 526.773 352.325C525.914 351.61 524.829 351.221 523.711 351.229H522.457Z" fill="black"/>
<path d="M370.801 474.517H615.677C615.68 473.313 615.445 472.121 614.986 471.009C614.526 469.896 613.852 468.886 613.001 468.035C612.15 467.184 611.139 466.509 610.027 466.05C608.914 465.591 607.722 465.356 606.519 465.358H380.002C378.796 465.356 377.602 465.59 376.487 466.049C375.372 466.508 374.359 467.182 373.504 468.032C372.65 468.882 371.972 469.893 371.508 471.006C371.044 472.118 370.804 473.311 370.801 474.517Z" fill="#01B0F1"/>
<path opacity="0.2" d="M534.781 474.517H615.677C615.68 473.313 615.445 472.121 614.986 471.009C614.526 469.896 613.852 468.886 613.001 468.035C612.15 467.184 611.139 466.509 610.027 466.05C608.914 465.591 607.722 465.356 606.519 465.358H543.982C542.777 465.356 541.582 465.59 540.468 466.049C539.353 466.508 538.339 467.182 537.485 468.032C536.631 468.882 535.952 469.893 535.488 471.006C535.024 472.118 534.784 473.311 534.781 474.517Z" fill="black"/>
<path opacity="0.4" d="M428.664 411.853C430.385 423.774 438.63 432.465 447.087 431.254C455.544 430.043 461.005 419.375 459.305 407.455C457.605 395.534 449.339 386.843 440.882 388.054C432.425 389.265 426.943 399.911 428.664 411.853Z" fill="white"/>
<path opacity="0.2" d="M370.801 474.517H615.677C615.68 473.313 615.445 472.121 614.986 471.009C614.526 469.896 613.852 468.886 613.001 468.035C612.15 467.184 611.139 466.509 610.027 466.05C608.914 465.591 607.722 465.356 606.519 465.358H380.002C378.796 465.356 377.602 465.59 376.487 466.049C375.372 466.508 374.359 467.182 373.504 468.032C372.65 468.882 371.972 469.893 371.508 471.006C371.044 472.118 370.804 473.311 370.801 474.517Z" fill="black"/>
<path d="M270.504 486.375H693.364C693.364 482.362 691.77 478.514 688.932 475.676C686.095 472.839 682.247 471.245 678.234 471.245H285.655C281.64 471.245 277.79 472.838 274.949 475.675C272.108 478.512 270.51 482.36 270.504 486.375Z" fill="#263238"/>
</svg>
